<?xml version="1.0" encoding="UTF-8" standalone="no"?>
<!DOCTYPE svg PUBLIC "-//W3C//DTD SVG 1.1//EN"
 "http://www.w3.org/Graphics/SVG/1.1/DTD/svg11.dtd">
<!-- Generated by graphviz version 2.38.0 (20140413.2041)
 -->
<!-- Title: %3 Pages: 1 -->
<svg width="311pt" height="388pt"
 viewBox="0.00 0.00 311.42 388.00" xmlns="http://www.w3.org/2000/svg" xmlns:xlink="http://www.w3.org/1999/xlink">
<g id="graph0" class="graph" transform="scale(1 1) rotate(0) translate(4 384)">
<title>%3</title>
<polygon fill="white" stroke="none" points="-4,4 -4,-384 307.421,-384 307.421,4 -4,4"/>
<!-- homepage -->
<g id="node1" class="node"><title>homepage</title>
<ellipse fill="none" stroke="black" cx="50" cy="-362" rx="46.3959" ry="18"/>
<text text-anchor="middle" x="50" y="-357.8" font-family="Times,serif" font-size="14.00">homepage</text>
</g>
<!-- products -->
<g id="node2" class="node"><title>products</title>
<ellipse fill="none" stroke="black" cx="149" cy="-276" rx="40.6248" ry="18"/>
<text text-anchor="middle" x="149" y="-271.8" font-family="Times,serif" font-size="14.00">products</text>
</g>
<!-- homepage&#45;&gt;products -->
<g id="edge1" class="edge"><title>homepage&#45;&gt;products</title>
<path fill="none" stroke="blue" d="M68.6211,-345.2C84.0243,-332.131 106.069,-313.426 123.178,-298.91"/>
<polygon fill="blue" stroke="blue" points="125.768,-301.302 131.129,-292.163 121.24,-295.964 125.768,-301.302"/>
<text text-anchor="middle" x="140.986" y="-314.8" font-family="Times,serif" font-size="14.00">:category_id</text>
</g>
<!-- vendors -->
<g id="node3" class="node"><title>vendors</title>
<ellipse fill="none" stroke="black" cx="44" cy="-18" rx="38.211" ry="18"/>
<text text-anchor="middle" x="44" y="-13.8" font-family="Times,serif" font-size="14.00">vendors</text>
</g>
<!-- homepage&#45;&gt;vendors -->
<g id="edge2" class="edge"><title>homepage&#45;&gt;vendors</title>
<path fill="none" stroke="red" stroke-dasharray="5,2" d="M33.3507,-344.984C18.8057,-329.202 0,-303.645 0,-277 0,-277 0,-277 0,-103 0,-80.914 12.0836,-58.9077 23.5859,-42.9629"/>
<polygon fill="red" stroke="red" points="26.5556,-44.8405 29.8359,-34.7663 20.9892,-40.596 26.5556,-44.8405"/>
<text text-anchor="middle" x="45.8794" y="-185.8" font-family="Times,serif" font-size="14.00">:vendor_type_id</text>
</g>
<!-- product -->
<g id="node5" class="node"><title>product</title>
<ellipse fill="none" stroke="black" cx="231" cy="-190" rx="37.2421" ry="18"/>
<text text-anchor="middle" x="231" y="-185.8" font-family="Times,serif" font-size="14.00">product</text>
</g>
<!-- products&#45;&gt;product -->
<g id="edge6" class="edge"><title>products&#45;&gt;product</title>
<path fill="none" stroke="blue" d="M173.134,-261.31C182.192,-255.468 192.177,-248.121 200,-240 206.698,-233.047 212.728,-224.426 217.651,-216.364"/>
<polygon fill="blue" stroke="blue" points="220.734,-218.024 222.715,-207.616 214.676,-214.517 220.734,-218.024"/>
<text text-anchor="middle" x="244.272" y="-228.8" font-family="Times,serif" font-size="14.00">:product_id</text>
</g>
<!-- vendor -->
<g id="node4" class="node"><title>vendor</title>
<ellipse fill="none" stroke="black" cx="128" cy="-104" rx="34.8285" ry="18"/>
<text text-anchor="middle" x="128" y="-99.8" font-family="Times,serif" font-size="14.00">vendor</text>
</g>
<!-- vendors&#45;&gt;vendor -->
<g id="edge4" class="edge"><title>vendors&#45;&gt;vendor</title>
<path fill="none" stroke="red" d="M38.2022,-36.2532C35.9325,-46.3262 35.151,-58.8185 41.3447,-68 51.1883,-82.5919 68.2505,-91.102 84.6456,-96.0643"/>
<polygon fill="red" stroke="red" points="84.1351,-99.5494 94.6972,-98.7183 85.9221,-92.7813 84.1351,-99.5494"/>
<text text-anchor="middle" x="72.3276" y="-56.8" font-family="Times,serif" font-size="14.00">:vendor_id</text>
</g>
<!-- vendor&#45;&gt;products -->
<g id="edge11" class="edge"><title>vendor&#45;&gt;products</title>
<path fill="none" stroke="red" d="M128.964,-122.186C130.229,-142.678 132.773,-177.936 136.786,-208 138.553,-221.234 141.137,-235.829 143.474,-248.01"/>
<polygon fill="red" stroke="red" points="140.075,-248.86 145.438,-257.997 146.943,-247.51 140.075,-248.86"/>
<text text-anchor="middle" x="161.107" y="-185.8" font-family="Times,serif" font-size="14.00">products</text>
</g>
<!-- vendor&#45;&gt;vendors -->
<g id="edge3" class="edge"><title>vendor&#45;&gt;vendors</title>
<path fill="none" stroke="black" d="M123.354,-86.0493C119.885,-75.8379 114.295,-63.0945 106,-54 99.0657,-46.3971 90.0848,-40.0378 81.1217,-34.9172"/>
<polygon fill="black" stroke="black" points="82.7156,-31.8008 72.2409,-30.2094 79.4369,-37.9855 82.7156,-31.8008"/>
<text text-anchor="middle" x="123" y="-56.8" font-family="Times,serif" font-size="14.00">up</text>
</g>
<!-- product&#45;&gt;products -->
<g id="edge5" class="edge"><title>product&#45;&gt;products</title>
<path fill="none" stroke="black" d="M210.342,-205.272C202.346,-211.244 193.365,-218.529 186,-226 178.856,-233.247 171.894,-241.904 165.973,-249.91"/>
<polygon fill="black" stroke="black" points="162.979,-248.08 159.996,-258.246 168.668,-252.159 162.979,-248.08"/>
<text text-anchor="middle" x="193" y="-228.8" font-family="Times,serif" font-size="14.00">up</text>
</g>
<!-- product&#45;&gt;vendor -->
<g id="edge10" class="edge"><title>product&#45;&gt;vendor</title>
<path fill="none" stroke="black" d="M207.883,-175.776C197.838,-169.636 186.151,-161.944 176.345,-154 166.818,-146.283 157.163,-136.881 149.012,-128.385"/>
<polygon fill="black" stroke="black" points="151.392,-125.807 141.996,-120.911 146.288,-130.597 151.392,-125.807"/>
<text text-anchor="middle" x="207.328" y="-142.8" font-family="Times,serif" font-size="14.00">:vendor_id</text>
</g>
<!-- cart -->
<g id="node6" class="node"><title>cart</title>
<ellipse fill="none" stroke="black" cx="266" cy="-104" rx="27" ry="18"/>
<text text-anchor="middle" x="266" y="-99.8" font-family="Times,serif" font-size="14.00">cart</text>
</g>
<!-- product&#45;&gt;cart -->
<g id="edge7" class="edge"><title>product&#45;&gt;cart</title>
<path fill="none" stroke="blue" d="M235.126,-171.875C237.688,-162.306 241.34,-150.275 245.786,-140 247.223,-136.679 248.901,-133.277 250.665,-129.959"/>
<polygon fill="blue" stroke="blue" points="253.868,-131.406 255.734,-120.976 247.771,-127.965 253.868,-131.406"/>
<text text-anchor="middle" x="256.107" y="-142.8" font-family="Times,serif" font-size="14.00">add</text>
</g>
<!-- cart&#45;&gt;product -->
<g id="edge8" class="edge"><title>cart&#45;&gt;product</title>
<path fill="none" stroke="black" d="M269.125,-121.955C270.167,-131.69 270.167,-143.94 266,-154 264.086,-158.62 261.235,-162.947 257.97,-166.877"/>
<polygon fill="black" stroke="black" points="255.215,-164.695 250.857,-174.351 260.286,-169.52 255.215,-164.695"/>
<text text-anchor="middle" x="286.71" y="-142.8" font-family="Times,serif" font-size="14.00">delete</text>
</g>
<!-- invoice -->
<g id="node7" class="node"><title>invoice</title>
<ellipse fill="none" stroke="black" cx="266" cy="-18" rx="36.2732" ry="18"/>
<text text-anchor="middle" x="266" y="-13.8" font-family="Times,serif" font-size="14.00">invoice</text>
</g>
<!-- cart&#45;&gt;invoice -->
<g id="edge9" class="edge"><title>cart&#45;&gt;invoice</title>
<path fill="none" stroke="blue" d="M266,-85.5951C266,-74.2572 266,-59.2271 266,-46.3153"/>
<polygon fill="blue" stroke="blue" points="269.5,-46.0951 266,-36.0952 262.5,-46.0952 269.5,-46.0951"/>
<text text-anchor="middle" x="276.5" y="-56.8" font-family="Times,serif" font-size="14.00">buy</text>
</g>
</g>
</svg>
