<?xml version="1.0" encoding="UTF-8" standalone="no"?>
<!DOCTYPE svg PUBLIC "-//W3C//DTD SVG 1.1//EN"
 "http://www.w3.org/Graphics/SVG/1.1/DTD/svg11.dtd">
<!-- Generated by graphviz version 2.38.0 (20140413.2041)
 -->
<!-- Title: %3 Pages: 1 -->
<svg width="226pt" height="388pt"
 viewBox="0.00 0.00 226.11 388.00" xmlns="http://www.w3.org/2000/svg" xmlns:xlink="http://www.w3.org/1999/xlink">
<g id="graph0" class="graph" transform="scale(1 1) rotate(0) translate(4 384)">
<title>%3</title>
<polygon fill="white" stroke="none" points="-4,4 -4,-384 222.109,-384 222.109,4 -4,4"/>
<!-- homepage -->
<g id="node1" class="node"><title>homepage</title>
<ellipse fill="none" stroke="black" cx="148.136" cy="-362" rx="46.3959" ry="18"/>
<text text-anchor="middle" x="148.136" y="-357.8" font-family="Times,serif" font-size="14.00">homepage</text>
</g>
<!-- products -->
<g id="node2" class="node"><title>products</title>
<ellipse fill="none" stroke="black" cx="148.136" cy="-276" rx="40.6248" ry="18"/>
<text text-anchor="middle" x="148.136" y="-271.8" font-family="Times,serif" font-size="14.00">products</text>
</g>
<!-- homepage&#45;&gt;products -->
<g id="edge1" class="edge"><title>homepage&#45;&gt;products</title>
<path fill="none" stroke="blue" d="M148.136,-343.595C148.136,-332.257 148.136,-317.227 148.136,-304.315"/>
<polygon fill="blue" stroke="blue" points="151.636,-304.095 148.136,-294.095 144.636,-304.095 151.636,-304.095"/>
<text text-anchor="middle" x="183.123" y="-314.8" font-family="Times,serif" font-size="14.00">:category_id</text>
</g>
<!-- product -->
<g id="node5" class="node"><title>product</title>
<ellipse fill="none" stroke="black" cx="60.1363" cy="-190" rx="37.2421" ry="18"/>
<text text-anchor="middle" x="60.1363" y="-185.8" font-family="Times,serif" font-size="14.00">product</text>
</g>
<!-- products&#45;&gt;product -->
<g id="edge5" class="edge"><title>products&#45;&gt;product</title>
<path fill="none" stroke="blue" d="M109.239,-270.21C90.3262,-265.702 69.2174,-256.958 57.5914,-240 53.2203,-233.624 52.268,-225.611 52.86,-217.923"/>
<polygon fill="blue" stroke="blue" points="56.352,-218.247 54.4484,-207.824 49.437,-217.159 56.352,-218.247"/>
<text text-anchor="middle" x="90.4088" y="-228.8" font-family="Times,serif" font-size="14.00">:product_id</text>
</g>
<!-- vendor -->
<g id="node3" class="node"><title>vendor</title>
<ellipse fill="none" stroke="black" cx="125.136" cy="-104" rx="34.8285" ry="18"/>
<text text-anchor="middle" x="125.136" y="-99.8" font-family="Times,serif" font-size="14.00">vendor</text>
</g>
<!-- vendor&#45;&gt;products -->
<g id="edge10" class="edge"><title>vendor&#45;&gt;products</title>
<path fill="none" stroke="black" d="M145.323,-118.766C151.971,-124.477 158.569,-131.716 162.136,-140 177.324,-175.273 167.498,-220.353 158.353,-248.454"/>
<polygon fill="black" stroke="black" points="155.016,-247.395 155.062,-257.99 161.633,-249.679 155.016,-247.395"/>
<text text-anchor="middle" x="193.243" y="-185.8" font-family="Times,serif" font-size="14.00">products</text>
</g>
<!-- vendors -->
<g id="node4" class="node"><title>vendors</title>
<ellipse fill="none" stroke="black" cx="157.136" cy="-18" rx="38.211" ry="18"/>
<text text-anchor="middle" x="157.136" y="-13.8" font-family="Times,serif" font-size="14.00">vendors</text>
</g>
<!-- vendor&#45;&gt;vendors -->
<g id="edge2" class="edge"><title>vendor&#45;&gt;vendors</title>
<path fill="none" stroke="black" d="M146.391,-89.4412C153.396,-83.7519 160.355,-76.4742 164.136,-68 167.183,-61.1727 167.35,-53.3266 166.243,-45.9427"/>
<polygon fill="black" stroke="black" points="169.608,-44.9537 163.998,-35.9664 162.779,-46.4909 169.608,-44.9537"/>
<text text-anchor="middle" x="173.136" y="-56.8" font-family="Times,serif" font-size="14.00">up</text>
</g>
<!-- vendors&#45;&gt;vendor -->
<g id="edge3" class="edge"><title>vendors&#45;&gt;vendor</title>
<path fill="none" stroke="black" d="M127.826,-29.5176C116.914,-35.0278 105.683,-42.9791 99.481,-54 94.7973,-62.3225 97.6247,-71.5738 102.834,-79.7763"/>
<polygon fill="black" stroke="black" points="100.105,-81.97 108.91,-87.8615 105.701,-77.7646 100.105,-81.97"/>
<text text-anchor="middle" x="130.464" y="-56.8" font-family="Times,serif" font-size="14.00">:vendor_id</text>
</g>
<!-- product&#45;&gt;products -->
<g id="edge4" class="edge"><title>product&#45;&gt;products</title>
<path fill="none" stroke="black" d="M89.2001,-201.398C101.836,-207.087 116.03,-215.208 126.136,-226 132.118,-232.387 136.67,-240.676 140.038,-248.615"/>
<polygon fill="black" stroke="black" points="136.765,-249.855 143.574,-257.972 143.313,-247.38 136.765,-249.855"/>
<text text-anchor="middle" x="143.136" y="-228.8" font-family="Times,serif" font-size="14.00">up</text>
</g>
<!-- product&#45;&gt;vendor -->
<g id="edge9" class="edge"><title>product&#45;&gt;vendor</title>
<path fill="none" stroke="black" d="M72.669,-172.804C82.2618,-160.407 95.6439,-143.113 106.492,-129.094"/>
<polygon fill="black" stroke="black" points="109.511,-130.912 112.863,-120.861 103.975,-126.628 109.511,-130.912"/>
<text text-anchor="middle" x="127.464" y="-142.8" font-family="Times,serif" font-size="14.00">:vendor_id</text>
</g>
<!-- cart -->
<g id="node6" class="node"><title>cart</title>
<ellipse fill="none" stroke="black" cx="36.1363" cy="-104" rx="27" ry="18"/>
<text text-anchor="middle" x="36.1363" y="-99.8" font-family="Times,serif" font-size="14.00">cart</text>
</g>
<!-- product&#45;&gt;cart -->
<g id="edge6" class="edge"><title>product&#45;&gt;cart</title>
<path fill="none" stroke="blue" d="M34.2367,-177.045C25.156,-171.429 15.9699,-163.783 10.9225,-154 6.42972,-145.292 9.56789,-135.708 14.9501,-127.344"/>
<polygon fill="blue" stroke="blue" points="17.9024,-129.242 21.1454,-119.156 12.3203,-125.019 17.9024,-129.242"/>
<text text-anchor="middle" x="21.2433" y="-142.8" font-family="Times,serif" font-size="14.00">add</text>
</g>
<!-- cart&#45;&gt;product -->
<g id="edge7" class="edge"><title>cart&#45;&gt;product</title>
<path fill="none" stroke="black" d="M40.9859,-121.973C44.2698,-133.467 48.6783,-148.897 52.4377,-162.055"/>
<polygon fill="black" stroke="black" points="49.1669,-163.348 55.2796,-172.001 55.8976,-161.425 49.1669,-163.348"/>
<text text-anchor="middle" x="66.8468" y="-142.8" font-family="Times,serif" font-size="14.00">delete</text>
</g>
<!-- invoice -->
<g id="node7" class="node"><title>invoice</title>
<ellipse fill="none" stroke="black" cx="36.1363" cy="-18" rx="36.2732" ry="18"/>
<text text-anchor="middle" x="36.1363" y="-13.8" font-family="Times,serif" font-size="14.00">invoice</text>
</g>
<!-- cart&#45;&gt;invoice -->
<g id="edge8" class="edge"><title>cart&#45;&gt;invoice</title>
<path fill="none" stroke="blue" d="M36.1363,-85.5951C36.1363,-74.2572 36.1363,-59.2271 36.1363,-46.3153"/>
<polygon fill="blue" stroke="blue" points="39.6364,-46.0951 36.1363,-36.0952 32.6364,-46.0952 39.6364,-46.0951"/>
<text text-anchor="middle" x="46.6363" y="-56.8" font-family="Times,serif" font-size="14.00">buy</text>
</g>
</g>
</svg>
