<?xml version="1.0" encoding="UTF-8" standalone="no"?>
<!DOCTYPE svg PUBLIC "-//W3C//DTD SVG 1.1//EN"
 "http://www.w3.org/Graphics/SVG/1.1/DTD/svg11.dtd">
<!-- Generated by graphviz version 2.38.0 (20140413.2041)
 -->
<!-- Title: %3 Pages: 1 -->
<svg width="312pt" height="410pt"
 viewBox="0.00 0.00 312.21 410.00" xmlns="http://www.w3.org/2000/svg" xmlns:xlink="http://www.w3.org/1999/xlink">
<g id="graph0" class="graph" transform="scale(1 1) rotate(0) translate(4 406)">
<title>%3</title>
<polygon fill="white" stroke="none" points="-4,4 -4,-406 308.209,-406 308.209,4 -4,4"/>
<!-- homepage -->
<g id="node1" class="node"><title>homepage</title>
<ellipse fill="none" stroke="black" cx="165.664" cy="-384" rx="46.3959" ry="18"/>
<text text-anchor="middle" x="165.664" y="-379.8" font-family="Times,serif" font-size="14.00">homepage</text>
</g>
<!-- products -->
<g id="node2" class="node"><title>products</title>
<ellipse fill="none" stroke="black" cx="70.6638" cy="-298" rx="40.6248" ry="18"/>
<text text-anchor="middle" x="70.6638" y="-293.8" font-family="Times,serif" font-size="14.00">products</text>
</g>
<!-- homepage&#45;&gt;products -->
<g id="edge1" class="edge"><title>homepage&#45;&gt;products</title>
<path fill="none" stroke="blue" d="M147.795,-367.2C133.107,-354.213 112.124,-335.66 95.7511,-321.182"/>
<polygon fill="blue" stroke="blue" points="97.9414,-318.447 88.1315,-314.445 93.3046,-323.691 97.9414,-318.447"/>
<text text-anchor="middle" x="159.65" y="-336.8" font-family="Times,serif" font-size="14.00">:category_id</text>
</g>
<!-- top_5_products -->
<g id="node3" class="node"><title>top_5_products</title>
<ellipse fill="none" stroke="black" cx="232.664" cy="-244" rx="65.2563" ry="18"/>
<text text-anchor="middle" x="232.664" y="-239.8" font-family="Times,serif" font-size="14.00">top_5_products</text>
</g>
<!-- homepage&#45;&gt;top_5_products -->
<g id="edge2" class="edge"><title>homepage&#45;&gt;top_5_products</title>
<path fill="none" stroke="green" d="M183.413,-367.145C188.893,-361.531 194.56,-354.887 198.664,-348 212.913,-324.089 222.042,-293.452 227.214,-271.827"/>
<polygon fill="green" stroke="green" points="230.643,-272.531 229.44,-262.004 223.816,-270.983 230.643,-272.531"/>
<text text-anchor="middle" x="254.436" y="-336.8" font-family="Times,serif" font-size="14.00">:top_5_vendor_id</text>
</g>
<!-- product -->
<g id="node7" class="node"><title>product</title>
<ellipse fill="none" stroke="black" cx="105.664" cy="-190" rx="37.2421" ry="18"/>
<text text-anchor="middle" x="105.664" y="-185.8" font-family="Times,serif" font-size="14.00">product</text>
</g>
<!-- products&#45;&gt;product -->
<g id="edge7" class="edge"><title>products&#45;&gt;product</title>
<path fill="none" stroke="blue" d="M76.2872,-279.969C81.8491,-263.125 90.4414,-237.102 96.8993,-217.544"/>
<polygon fill="blue" stroke="blue" points="100.243,-218.582 100.054,-207.988 93.5955,-216.387 100.243,-218.582"/>
<text text-anchor="middle" x="125.936" y="-239.8" font-family="Times,serif" font-size="14.00">:product_id</text>
</g>
<!-- cart -->
<g id="node4" class="node"><title>cart</title>
<ellipse fill="none" stroke="black" cx="162.664" cy="-104" rx="27" ry="18"/>
<text text-anchor="middle" x="162.664" y="-99.8" font-family="Times,serif" font-size="14.00">cart</text>
</g>
<!-- top_5_products&#45;&gt;cart -->
<g id="edge3" class="edge"><title>top_5_products&#45;&gt;cart</title>
<path fill="none" stroke="green" d="M226.086,-225.772C217.88,-204.937 202.933,-169.048 186.664,-140 184.656,-136.414 182.383,-132.729 180.057,-129.159"/>
<polygon fill="green" stroke="green" points="182.791,-126.955 174.283,-120.64 176.996,-130.882 182.791,-126.955"/>
<text text-anchor="middle" x="228.771" y="-185.8" font-family="Times,serif" font-size="14.00">add</text>
</g>
<!-- cart&#45;&gt;product -->
<g id="edge9" class="edge"><title>cart&#45;&gt;product</title>
<path fill="none" stroke="black" d="M156.923,-121.673C153.111,-131.54 147.546,-144.02 140.664,-154 137.632,-158.397 134.009,-162.722 130.26,-166.751"/>
<polygon fill="black" stroke="black" points="127.562,-164.503 123.021,-174.075 132.54,-169.424 127.562,-164.503"/>
<text text-anchor="middle" x="166.374" y="-142.8" font-family="Times,serif" font-size="14.00">delete</text>
</g>
<!-- invoice -->
<g id="node8" class="node"><title>invoice</title>
<ellipse fill="none" stroke="black" cx="162.664" cy="-18" rx="36.2732" ry="18"/>
<text text-anchor="middle" x="162.664" y="-13.8" font-family="Times,serif" font-size="14.00">invoice</text>
</g>
<!-- cart&#45;&gt;invoice -->
<g id="edge10" class="edge"><title>cart&#45;&gt;invoice</title>
<path fill="none" stroke="blue" d="M162.664,-85.5951C162.664,-74.2572 162.664,-59.2271 162.664,-46.3153"/>
<polygon fill="blue" stroke="blue" points="166.164,-46.0951 162.664,-36.0952 159.164,-46.0952 166.164,-46.0951"/>
<text text-anchor="middle" x="173.164" y="-56.8" font-family="Times,serif" font-size="14.00">buy</text>
</g>
<!-- vendor -->
<g id="node5" class="node"><title>vendor</title>
<ellipse fill="none" stroke="black" cx="34.6638" cy="-104" rx="34.8285" ry="18"/>
<text text-anchor="middle" x="34.6638" y="-99.8" font-family="Times,serif" font-size="14.00">vendor</text>
</g>
<!-- vendor&#45;&gt;products -->
<g id="edge12" class="edge"><title>vendor&#45;&gt;products</title>
<path fill="none" stroke="black" d="M25.6861,-121.602C15.785,-142.118 2.38061,-177.996 11.45,-208 18.8796,-232.579 35.5749,-256.587 49.3501,-273.462"/>
<polygon fill="black" stroke="black" points="46.7037,-275.753 55.8245,-281.144 52.0563,-271.242 46.7037,-275.753"/>
<text text-anchor="middle" x="35.7708" y="-185.8" font-family="Times,serif" font-size="14.00">products</text>
</g>
<!-- vendors -->
<g id="node6" class="node"><title>vendors</title>
<ellipse fill="none" stroke="black" cx="52.6638" cy="-18" rx="38.211" ry="18"/>
<text text-anchor="middle" x="52.6638" y="-13.8" font-family="Times,serif" font-size="14.00">vendors</text>
</g>
<!-- vendor&#45;&gt;vendors -->
<g id="edge4" class="edge"><title>vendor&#45;&gt;vendors</title>
<path fill="none" stroke="black" d="M33.2341,-85.9894C32.8727,-76.4561 33.1542,-64.4231 35.6638,-54 36.3992,-50.9461 37.4282,-47.8468 38.6201,-44.8195"/>
<polygon fill="black" stroke="black" points="41.8865,-46.0908 42.8217,-35.5373 35.5094,-43.2041 41.8865,-46.0908"/>
<text text-anchor="middle" x="42.6638" y="-56.8" font-family="Times,serif" font-size="14.00">up</text>
</g>
<!-- vendors&#45;&gt;vendor -->
<g id="edge5" class="edge"><title>vendors&#45;&gt;vendor</title>
<path fill="none" stroke="black" d="M53.04,-36.4465C52.8844,-45.8996 52.1043,-57.7173 49.6638,-68 48.9769,-70.8945 48.068,-73.8529 47.0363,-76.7632"/>
<polygon fill="black" stroke="black" points="43.6809,-75.7266 43.2004,-86.3105 50.1763,-78.3363 43.6809,-75.7266"/>
<text text-anchor="middle" x="82.9915" y="-56.8" font-family="Times,serif" font-size="14.00">:vendor_id</text>
</g>
<!-- product&#45;&gt;products -->
<g id="edge6" class="edge"><title>product&#45;&gt;products</title>
<path fill="none" stroke="black" d="M81.7486,-204.023C73.8529,-209.655 65.9892,-217.033 61.6638,-226 55.0826,-239.645 56.8115,-256.397 60.4277,-270.202"/>
<polygon fill="black" stroke="black" points="57.1793,-271.547 63.4546,-280.084 63.8723,-269.497 57.1793,-271.547"/>
<text text-anchor="middle" x="68.6638" y="-239.8" font-family="Times,serif" font-size="14.00">up</text>
</g>
<!-- product&#45;&gt;cart -->
<g id="edge8" class="edge"><title>product&#45;&gt;cart</title>
<path fill="none" stroke="blue" d="M108.341,-171.608C110.465,-161.727 114.162,-149.477 120.45,-140 124.481,-133.924 129.879,-128.351 135.465,-123.523"/>
<polygon fill="blue" stroke="blue" points="138.001,-125.978 143.646,-117.012 133.642,-120.501 138.001,-125.978"/>
<text text-anchor="middle" x="130.771" y="-142.8" font-family="Times,serif" font-size="14.00">add</text>
</g>
<!-- product&#45;&gt;vendor -->
<g id="edge11" class="edge"><title>product&#45;&gt;vendor</title>
<path fill="none" stroke="black" d="M78.6302,-177.548C68.051,-171.857 56.6462,-164.024 49.0086,-154 44.2072,-147.699 41.01,-139.825 38.882,-132.244"/>
<polygon fill="black" stroke="black" points="42.24,-131.229 36.5927,-122.265 35.4172,-132.794 42.24,-131.229"/>
<text text-anchor="middle" x="79.9915" y="-142.8" font-family="Times,serif" font-size="14.00">:vendor_id</text>
</g>
</g>
</svg>
